<?xml version="1.0" encoding="UTF-8"?>
<svg width="104px" height="150px" viewBox="0 0 104 150" version="1.1" xmlns="http://www.w3.org/2000/svg" xmlns:xlink="http://www.w3.org/1999/xlink">
  <g id="root" stroke="none" stroke-width="1" fill="none" fill-rule="evenodd">
    <g id="Group">
      <path d="M84.457,113.418 C72.625,126.733 59.329,134.258 52.939,137.874 L52.265,138.256 L51.591,137.874 C45.201,134.258 31.905,126.733 20.072,113.417 C10.155,102.258 10.391,83.548 10.641,63.74 C10.679,60.735 10.718,57.626 10.718,54.58 L10.718,53.222 L12.076,53.212 C32.652,53.064 51.527,44.895 51.716,44.812 L52.265,44.572 L52.814,44.812 C53.002,44.895 71.901,53.064 92.453,53.212 L93.812,53.222 L93.812,54.58 C93.812,57.626 93.851,60.735 93.889,63.74 C94.139,83.548 94.374,102.258 84.457,113.418 Z M73.257,130.325 C71.797,130.325 70.614,129.143 70.614,127.683 C70.614,126.738 71.111,125.911 71.858,125.444 C71.495,125.763 71.244,126.203 71.164,126.702 C71.357,126.306 71.654,125.969 72.026,125.737 C71.637,126.078 71.39,126.579 71.39,127.138 C71.39,128.169 72.226,129.005 73.257,129.005 C74.287,129.005 75.123,128.169 75.123,127.138 C75.123,126.579 74.877,126.078 74.487,125.737 C74.86,125.969 75.156,126.306 75.349,126.702 C75.269,126.203 75.018,125.763 74.655,125.444 C75.402,125.911 75.9,126.738 75.9,127.683 C75.9,129.143 74.716,130.325 73.257,130.325 Z M31.274,130.325 C29.814,130.325 28.63,129.143 28.63,127.683 C28.63,126.738 29.128,125.911 29.874,125.444 C29.512,125.763 29.261,126.203 29.181,126.702 C29.373,126.306 29.671,125.969 30.042,125.737 C29.653,126.078 29.406,126.579 29.406,127.138 C29.406,128.169 30.242,129.005 31.274,129.005 C32.304,129.005 33.14,128.169 33.14,127.138 C33.14,126.579 32.894,126.078 32.504,125.737 C32.876,125.969 33.173,126.306 33.365,126.702 C33.285,126.203 33.034,125.763 32.672,125.444 C33.418,125.911 33.916,126.738 33.916,127.683 C33.916,129.143 32.733,130.325 31.274,130.325 Z M10.094,102.487 C8.634,102.487 7.451,101.303 7.451,99.844 C7.451,98.899 7.949,98.072 8.695,97.605 C8.332,97.923 8.081,98.364 8.002,98.863 C8.194,98.466 8.491,98.13 8.862,97.897 C8.474,98.239 8.227,98.739 8.227,99.298 C8.227,100.329 9.063,101.165 10.094,101.165 C11.125,101.165 11.961,100.329 11.961,99.298 C11.961,98.739 11.714,98.239 11.325,97.897 C11.696,98.13 11.994,98.466 12.186,98.863 C12.107,98.364 11.856,97.923 11.492,97.605 C12.238,98.072 12.736,98.899 12.736,99.844 C12.736,101.303 11.554,102.487 10.094,102.487 Z M4.978,67.112 C4.978,66.166 5.476,65.339 6.222,64.872 C5.86,65.192 5.609,65.632 5.528,66.131 C5.721,65.734 6.019,65.398 6.39,65.165 C6.001,65.507 5.754,66.007 5.754,66.567 C5.754,67.597 6.59,68.433 7.621,68.433 C8.652,68.433 9.487,67.597 9.487,66.567 C9.487,66.007 9.241,65.507 8.852,65.165 C9.224,65.398 9.521,65.734 9.713,66.131 C9.633,65.632 9.382,65.192 9.02,64.872 C9.766,65.339 10.264,66.166 10.264,67.112 C10.264,68.572 9.08,69.754 7.621,69.754 C6.161,69.754 4.978,68.572 4.978,67.112 Z M21.563,46.581 C21.2,46.901 20.949,47.341 20.87,47.84 C21.062,47.443 21.36,47.107 21.731,46.874 C21.342,47.216 21.095,47.716 21.095,48.275 C21.095,49.306 21.931,50.142 22.962,50.142 C23.993,50.142 24.828,49.306 24.828,48.275 C24.828,47.716 24.582,47.216 24.193,46.874 C24.565,47.107 24.861,47.443 25.054,47.84 C24.975,47.341 24.724,46.901 24.361,46.581 C25.107,47.048 25.605,47.875 25.605,48.821 C25.605,50.28 24.421,51.463 22.962,51.463 C21.502,51.463 20.319,50.28 20.319,48.821 C20.319,47.875 20.817,47.048 21.563,46.581 Z M50.866,39.034 C50.503,39.354 50.252,39.794 50.173,40.293 C50.364,39.896 50.662,39.56 51.034,39.327 C50.645,39.669 50.398,40.169 50.398,40.729 C50.398,41.759 51.234,42.595 52.265,42.595 C53.296,42.595 54.132,41.759 54.132,40.729 C54.132,40.169 53.885,39.669 53.496,39.327 C53.867,39.56 54.165,39.896 54.357,40.293 C54.277,39.794 54.027,39.354 53.663,39.034 C54.409,39.502 54.907,40.328 54.907,41.274 C54.907,42.734 53.725,43.916 52.265,43.916 C50.806,43.916 49.622,42.734 49.622,41.274 C49.622,40.328 50.12,39.502 50.866,39.034 Z M80.169,46.581 C79.807,46.901 79.556,47.341 79.476,47.84 C79.668,47.443 79.965,47.107 80.337,46.874 C79.947,47.216 79.701,47.716 79.701,48.275 C79.701,49.306 80.537,50.142 81.568,50.142 C82.599,50.142 83.435,49.306 83.435,48.275 C83.435,47.716 83.188,47.216 82.799,46.874 C83.17,47.107 83.468,47.443 83.66,47.84 C83.58,47.341 83.329,46.901 82.967,46.581 C83.713,47.048 84.211,47.875 84.211,48.821 C84.211,50.28 83.027,51.463 81.568,51.463 C80.109,51.463 78.925,50.28 78.925,48.821 C78.925,47.875 79.423,47.048 80.169,46.581 Z M95.51,64.872 C95.148,65.192 94.897,65.632 94.817,66.131 C95.009,65.734 95.307,65.398 95.678,65.165 C95.289,65.507 95.042,66.007 95.042,66.567 C95.042,67.597 95.878,68.433 96.909,68.433 C97.94,68.433 98.776,67.597 98.776,66.567 C98.776,66.007 98.529,65.507 98.14,65.165 C98.512,65.398 98.809,65.734 99.001,66.131 C98.921,65.632 98.67,65.192 98.308,64.872 C99.054,65.339 99.552,66.166 99.552,67.112 C99.552,68.572 98.368,69.754 96.909,69.754 C95.449,69.754 94.267,68.572 94.267,67.112 C94.267,66.166 94.764,65.339 95.51,64.872 Z M94.436,102.487 C92.977,102.487 91.793,101.303 91.793,99.844 C91.793,98.899 92.291,98.072 93.037,97.605 C92.674,97.923 92.423,98.364 92.344,98.863 C92.535,98.466 92.833,98.13 93.205,97.897 C92.816,98.239 92.569,98.739 92.569,99.298 C92.569,100.329 93.404,101.165 94.436,101.165 C95.467,101.165 96.303,100.329 96.303,99.298 C96.303,98.739 96.056,98.239 95.667,97.897 C96.038,98.13 96.336,98.466 96.527,98.863 C96.448,98.364 96.197,97.923 95.834,97.605 C96.58,98.072 97.078,98.899 97.078,99.844 C97.078,101.303 95.896,102.487 94.436,102.487 Z M100.162,57.38 C100.122,54.21 100.081,50.949 100.07,47.715 C76.851,47.178 56.282,39.075 52.265,37.4 C48.247,39.075 27.679,47.178 4.46,47.715 C4.448,50.949 4.407,54.211 4.367,57.381 C4.069,81.107 3.786,103.517 15.134,116.286 C27.335,130.015 40.166,138.351 52.265,145.243 C64.363,138.35 77.195,130.014 89.396,116.285 C100.743,103.517 100.461,81.107 100.162,57.38 L100.162,57.38 Z" id="Fill-60" fill="#282d35"></path>
      <path d="M91.078,55.928 C74.284,55.539 59.207,50.279 53.808,48.172 L52.265,65.772 L50.722,48.172 C45.323,50.279 30.245,55.539 13.452,55.928 C13.443,58.554 13.409,61.201 13.377,63.776 C13.134,83.038 12.905,101.233 22.118,111.6 C31.511,122.168 41.361,128.799 50.73,134.228 L52.265,109.113 L53.8,134.228 C63.168,128.799 73.02,122.168 82.411,111.6 C91.624,101.233 91.396,83.038 91.152,63.776 C91.12,61.201 91.087,58.553 91.078,55.928" id="Fill-61" fill="#282d35"></path>
      <path d="M52.265,145.243 C40.166,138.351 27.335,130.015 15.134,116.286 C3.786,103.517 4.069,81.107 4.367,57.381 C4.407,54.211 4.448,50.949 4.46,47.715 C27.679,47.178 48.247,39.075 52.265,37.4 C56.282,39.075 76.851,47.178 100.07,47.715 C100.081,50.949 100.122,54.21 100.162,57.38 C100.461,81.107 100.743,103.517 89.396,116.285 C77.195,130.014 64.363,138.35 52.265,145.243 Z M103.532,57.338 C103.486,53.635 103.439,49.807 103.439,46.055 L103.439,44.382 L101.765,44.37 C76.449,44.187 53.173,34.125 52.942,34.025 L52.265,33.728 L51.588,34.025 C51.357,34.126 28.109,44.187 2.765,44.37 L1.092,44.382 L1.092,46.055 C1.092,49.808 1.044,53.636 0.997,57.338 C0.69,81.736 0.4,104.78 12.614,118.526 C27.188,134.923 43.565,144.194 51.435,148.649 L52.265,149.118 L53.095,148.649 C60.966,144.193 77.343,134.922 91.915,118.525 C104.131,104.78 103.84,81.736 103.532,57.338 L103.532,57.338 Z" id="Fill-62" fill="#FFFFFE"></path>
      <path d="M82.411,111.6 C73.02,122.168 63.168,128.799 53.8,134.228 L52.265,109.113 L50.73,134.228 C41.361,128.799 31.511,122.168 22.118,111.6 C12.905,101.233 13.134,83.038 13.377,63.776 C13.409,61.201 13.443,58.554 13.452,55.928 C30.245,55.539 45.323,50.279 50.722,48.172 L52.265,65.772 L53.808,48.172 C59.207,50.279 74.284,55.539 91.078,55.928 C91.087,58.553 91.12,61.201 91.152,63.776 C91.396,83.038 91.624,101.233 82.411,111.6 Z M93.889,63.74 C93.851,60.735 93.812,57.626 93.812,54.58 L93.812,53.222 L92.453,53.212 C71.901,53.064 53.002,44.895 52.814,44.812 L52.265,44.572 L51.716,44.812 C51.527,44.895 32.652,53.064 12.076,53.212 L10.718,53.222 L10.718,54.58 C10.718,57.626 10.679,60.735 10.641,63.74 C10.391,83.548 10.155,102.258 20.072,113.417 C31.905,126.733 45.201,134.258 51.591,137.874 L52.265,138.256 L52.939,137.874 C59.329,134.258 72.625,126.733 84.457,113.418 C94.374,102.258 94.139,83.548 93.889,63.74 L93.889,63.74 Z" id="Fill-63" fill="#FFFFFE"></path>
      <path d="M52.265,43.916 C53.725,43.916 54.907,42.734 54.907,41.274 C54.907,40.328 54.409,39.502 53.663,39.034 C54.027,39.354 54.277,39.794 54.357,40.293 C54.165,39.896 53.867,39.56 53.496,39.327 C53.885,39.669 54.132,40.169 54.132,40.729 C54.132,41.759 53.296,42.595 52.265,42.595 C51.234,42.595 50.398,41.759 50.398,40.729 C50.398,40.169 50.645,39.669 51.034,39.327 C50.662,39.56 50.364,39.896 50.173,40.293 C50.252,39.794 50.503,39.354 50.866,39.034 C50.12,39.502 49.622,40.328 49.622,41.274 C49.622,42.734 50.806,43.916 52.265,43.916" id="Fill-64" fill="#FFFFFE"></path>
      <path d="M22.962,51.463 C24.421,51.463 25.605,50.28 25.605,48.821 C25.605,47.875 25.107,47.048 24.361,46.581 C24.724,46.901 24.975,47.341 25.054,47.84 C24.861,47.443 24.565,47.107 24.193,46.874 C24.582,47.216 24.828,47.716 24.828,48.275 C24.828,49.306 23.993,50.142 22.962,50.142 C21.931,50.142 21.095,49.306 21.095,48.275 C21.095,47.716 21.342,47.216 21.731,46.874 C21.36,47.107 21.062,47.443 20.87,47.84 C20.949,47.341 21.2,46.901 21.563,46.581 C20.817,47.048 20.319,47.875 20.319,48.821 C20.319,50.28 21.502,51.463 22.962,51.463" id="Fill-65" fill="#FFFFFE"></path>
      <path d="M81.568,51.463 C83.027,51.463 84.211,50.28 84.211,48.821 C84.211,47.875 83.713,47.048 82.967,46.581 C83.329,46.901 83.58,47.341 83.66,47.84 C83.468,47.443 83.17,47.107 82.799,46.874 C83.188,47.216 83.435,47.716 83.435,48.275 C83.435,49.306 82.599,50.142 81.568,50.142 C80.537,50.142 79.701,49.306 79.701,48.275 C79.701,47.716 79.947,47.216 80.337,46.874 C79.965,47.107 79.668,47.443 79.476,47.84 C79.556,47.341 79.807,46.901 80.169,46.581 C79.423,47.048 78.925,47.875 78.925,48.821 C78.925,50.28 80.109,51.463 81.568,51.463" id="Fill-66" fill="#FFFFFE"></path>
      <path d="M10.264,67.112 C10.264,66.166 9.766,65.339 9.02,64.872 C9.382,65.192 9.633,65.632 9.713,66.131 C9.521,65.734 9.224,65.398 8.852,65.165 C9.241,65.507 9.487,66.007 9.487,66.567 C9.487,67.597 8.652,68.433 7.621,68.433 C6.59,68.433 5.754,67.597 5.754,66.567 C5.754,66.007 6.001,65.507 6.39,65.165 C6.019,65.398 5.721,65.734 5.528,66.131 C5.609,65.632 5.86,65.192 6.222,64.872 C5.476,65.339 4.978,66.166 4.978,67.112 C4.978,68.572 6.161,69.754 7.621,69.754 C9.08,69.754 10.264,68.572 10.264,67.112" id="Fill-67" fill="#FFFFFE"></path>
      <path d="M96.909,69.754 C98.368,69.754 99.552,68.572 99.552,67.112 C99.552,66.166 99.054,65.339 98.308,64.872 C98.67,65.192 98.921,65.632 99.001,66.131 C98.809,65.734 98.512,65.398 98.14,65.165 C98.529,65.507 98.776,66.007 98.776,66.567 C98.776,67.597 97.94,68.433 96.909,68.433 C95.878,68.433 95.042,67.597 95.042,66.567 C95.042,66.007 95.289,65.507 95.678,65.165 C95.307,65.398 95.009,65.734 94.817,66.131 C94.897,65.632 95.148,65.192 95.51,64.872 C94.764,65.339 94.267,66.166 94.267,67.112 C94.267,68.572 95.449,69.754 96.909,69.754" id="Fill-68" fill="#FFFFFE"></path>
      <path d="M11.492,97.605 C11.856,97.923 12.107,98.364 12.186,98.863 C11.994,98.466 11.696,98.13 11.325,97.897 C11.714,98.239 11.961,98.739 11.961,99.298 C11.961,100.329 11.125,101.165 10.094,101.165 C9.063,101.165 8.227,100.329 8.227,99.298 C8.227,98.739 8.474,98.239 8.862,97.897 C8.491,98.13 8.194,98.466 8.002,98.863 C8.081,98.364 8.332,97.923 8.695,97.605 C7.949,98.072 7.451,98.899 7.451,99.844 C7.451,101.303 8.634,102.487 10.094,102.487 C11.554,102.487 12.736,101.303 12.736,99.844 C12.736,98.899 12.238,98.072 11.492,97.605" id="Fill-69" fill="#FFFFFE"></path>
      <path d="M95.834,97.605 C96.197,97.923 96.448,98.364 96.527,98.863 C96.336,98.466 96.038,98.13 95.667,97.897 C96.056,98.239 96.303,98.739 96.303,99.298 C96.303,100.329 95.467,101.165 94.436,101.165 C93.404,101.165 92.569,100.329 92.569,99.298 C92.569,98.739 92.816,98.239 93.205,97.897 C92.833,98.13 92.535,98.466 92.344,98.863 C92.423,98.364 92.674,97.923 93.037,97.605 C92.291,98.072 91.793,98.899 91.793,99.844 C91.793,101.303 92.977,102.487 94.436,102.487 C95.896,102.487 97.078,101.303 97.078,99.844 C97.078,98.899 96.58,98.072 95.834,97.605" id="Fill-70" fill="#FFFFFE"></path>
      <path d="M32.672,125.444 C33.034,125.763 33.285,126.203 33.365,126.702 C33.173,126.306 32.876,125.969 32.504,125.737 C32.894,126.078 33.14,126.579 33.14,127.138 C33.14,128.169 32.304,129.005 31.274,129.005 C30.242,129.005 29.406,128.169 29.406,127.138 C29.406,126.579 29.653,126.078 30.042,125.737 C29.671,125.969 29.373,126.306 29.181,126.702 C29.261,126.203 29.512,125.763 29.874,125.444 C29.128,125.911 28.63,126.738 28.63,127.683 C28.63,129.143 29.814,130.325 31.274,130.325 C32.733,130.325 33.916,129.143 33.916,127.683 C33.916,126.738 33.418,125.911 32.672,125.444" id="Fill-71" fill="#FFFFFE"></path>
      <path d="M74.655,125.444 C75.018,125.763 75.269,126.203 75.349,126.702 C75.156,126.306 74.86,125.969 74.487,125.737 C74.877,126.078 75.123,126.579 75.123,127.138 C75.123,128.169 74.287,129.005 73.257,129.005 C72.226,129.005 71.39,128.169 71.39,127.138 C71.39,126.579 71.637,126.078 72.026,125.737 C71.654,125.969 71.357,126.306 71.164,126.702 C71.244,126.203 71.495,125.763 71.858,125.444 C71.111,125.911 70.614,126.738 70.614,127.683 C70.614,129.143 71.797,130.325 73.257,130.325 C74.716,130.325 75.9,129.143 75.9,127.683 C75.9,126.738 75.402,125.911 74.655,125.444" id="Fill-72" fill="#FFFFFE"></path>
      <path d="M80.14,36.024 C84.14,31.782 88.395,24.638 88.222,13.516 C90.924,19.589 91.776,26.323 90.492,32.493 C88.822,40.519 83.653,47.298 75.537,52.113 C73.843,52.392 71.441,50.683 69.965,48.111 C69.037,46.494 68.506,44.462 69.275,43.346 C70.779,42.797 75.678,40.755 80.14,36.024" id="Fill-73" fill="#282d35"></path>
      <path d="M14.037,32.493 C12.754,26.323 13.606,19.589 16.308,13.516 C16.136,24.638 20.39,31.782 24.39,36.024 C28.853,40.755 33.75,42.797 35.256,43.346 C36.024,44.462 35.492,46.494 34.566,48.111 C33.089,50.683 30.685,52.389 28.992,52.113 C20.876,47.298 15.707,40.519 14.037,32.493" id="Fill-74" fill="#282d35"></path>
      <path d="M29.614,93.223 C30.088,98.171 32.541,101.837 36.568,103.67 L36.598,110.877 L23.665,100.651 L27.199,79.281 L31.987,81.261 C30.379,84.137 29.2,88.906 29.614,93.223" id="Fill-75" fill="#282d35"></path>
      <path d="M68.706,110.877 L68.737,103.67 C72.763,101.837 75.217,98.171 75.69,93.223 C76.118,88.756 74.841,83.807 73.148,80.97 L77.355,79.231 L78.049,78.944 L81.64,100.651 L68.706,110.877" id="Fill-76" fill="#282d35"></path>
      <path d="M76.913,64.814 C78.071,64.612 79.213,64.329 80.358,64.063 C79.955,69.903 81.525,73.529 78.034,75.459 C77.589,75.718 59.508,83.159 59.349,83.225 L58.404,83.615 L57.871,97.646 L53.651,100.773 L52.265,84.263 L50.877,100.804 L46.516,97.637 L45.983,83.598 L45.038,83.207 C27.161,75.81 24.057,75.486 24.082,71.66 C24.08,71.58 24.072,71.08 24.0729139,71.16 L24.0729139,64.063 C25.218,64.329 26.36,64.612 27.518,64.814 C29.434,65.157 37.938,66.142 43.958,66.467 C38.077,64.332 29.916,61.95 28.182,61.555 C28.114,61.538 28.046,61.528 27.979,61.512 C28.033,59.314 28.244,57.227 28.605,55.273 C28.869,55.311 29.135,55.335 29.399,55.335 C32.612,55.335 35.669,52.588 37.329,49.697 C39.315,46.237 39.307,42.848 37.31,40.853 L37.156,40.7 C40.777,38.195 45.463,36.852 51.144,36.703 L52.652,58.934 L54.158,36.738 C59.478,36.996 63.892,38.339 67.332,40.741 L67.221,40.853 C65.223,42.848 65.216,46.237 67.201,49.697 C68.861,52.588 71.917,55.335 75.131,55.335 C75.363,55.335 75.597,55.321 75.83,55.291 C76.189,57.24 76.398,59.322 76.452,61.512 C76.385,61.528 76.317,61.538 76.249,61.555 C74.749,61.897 66.601,64.243 60.474,66.467 C65.72,66.184 75.149,65.13 76.913,64.814" id="Fill-77" fill="#282d35"></path>
      <polyline id="Fill-78" fill="#FFFFFE" points="27.295 67.758 27.295 71.662 52.216 81.518 77.136 71.662 77.136 67.758 52.216 71.662 27.295 67.758"></polyline>
      <path d="M76.913,64.814 C78.071,64.612 79.213,64.329 80.358,64.063 C79.955,69.903 81.525,73.529 78.034,75.459 C77.589,75.718 59.508,83.159 59.349,83.225 L58.404,83.615 L57.871,97.646 L53.651,100.773 L52.265,84.263 L50.877,100.804 L46.516,97.637 L45.983,83.598 L45.038,83.207 C27.161,75.81 24.057,75.486 24.082,71.66 C24.08,71.58 24.072,71.08 24.0729139,71.16 L24.0729139,64.063 C25.218,64.329 26.36,64.612 27.518,64.814 C29.434,65.157 37.938,66.142 43.958,66.467 C38.077,64.332 29.916,61.95 28.182,61.555 C28.114,61.538 28.046,61.528 27.979,61.512 C28.033,59.314 28.244,57.227 28.605,55.273 C28.869,55.311 29.135,55.335 29.399,55.335 C32.612,55.335 35.669,52.588 37.329,49.697 C39.315,46.237 39.307,42.848 37.31,40.853 L37.156,40.7 C40.777,38.195 45.463,36.852 51.144,36.703 L52.652,58.934 L54.158,36.738 C59.478,36.996 63.892,38.339 67.332,40.741 L67.221,40.853 C65.223,42.848 65.216,46.237 67.201,49.697 C68.861,52.588 71.917,55.335 75.131,55.335 C75.363,55.335 75.597,55.321 75.83,55.291 C76.189,57.24 76.398,59.322 76.452,61.512 C76.385,61.528 76.317,61.538 76.249,61.555 C74.749,61.897 66.601,64.243 60.474,66.467 C65.72,66.184 75.149,65.13 76.913,64.814 Z M68.706,110.877 L68.737,103.67 C72.763,101.837 75.217,98.171 75.69,93.223 C76.118,88.756 74.841,83.807 73.148,80.97 L77.355,79.231 L78.049,78.944 L81.64,100.651 L68.706,110.877 Z M29.614,93.223 C30.088,98.171 32.541,101.837 36.568,103.67 L36.598,110.877 L23.665,100.651 L27.199,79.281 L31.987,81.261 C30.379,84.137 29.2,88.906 29.614,93.223 Z M14.037,32.493 C12.754,26.323 13.606,19.589 16.308,13.516 C16.136,24.638 20.39,31.782 24.39,36.024 C28.853,40.755 33.75,42.797 35.256,43.346 C36.024,44.462 35.492,46.494 34.566,48.111 C33.089,50.683 30.685,52.389 28.992,52.113 C20.876,47.298 15.707,40.519 14.037,32.493 Z M80.14,36.024 C84.14,31.782 88.395,24.638 88.222,13.516 C90.924,19.589 91.776,26.323 90.492,32.493 C88.822,40.519 83.653,47.298 75.537,52.113 C73.843,52.392 71.441,50.683 69.965,48.111 C69.037,46.494 68.506,44.462 69.275,43.346 C70.779,42.797 75.678,40.755 80.14,36.024 Z M93.611,33.143 C95.531,23.914 93.146,13.571 87.229,5.475 L83.229,0 L84.372,6.683 C87.799,26.705 77.411,35.5 71.556,38.788 C66.787,34.648 60.29,32.544 52.216,32.544 C44.178,32.544 37.701,34.628 32.939,38.733 C31.114,37.69 28.853,36.113 26.707,33.837 C20.419,27.169 18.215,18.033 20.157,6.683 L21.301,0 L17.301,5.475 C11.384,13.571 8.998,23.914 10.918,33.143 C12.59,41.177 17.371,48.052 24.802,53.198 C24.28,55.548 23.967,58.074 23.864,60.74 C23.508,60.674 23.152,60.607 22.798,60.529 L20.887,60.109 L20.887,62.09 C20.887,71.031 20.024,74.698 24.014,77.694 L19.982,102.074 L40.029,117.928 L39.959,101.306 L38.82,100.911 C35.499,99.759 33.56,97.229 33.056,93.391 C32.473,88.948 34.043,84.355 35.135,82.562 L42.876,85.761 L43.361,98.531 L43.391,99.305 L44.018,99.76 L51.328,105.071 L52.275,105.757 L60.382,99.751 L60.997,99.296 L61.027,98.531 L61.511,85.78 L69.985,82.278 C71.078,83.835 72.863,88.701 72.248,93.391 C71.744,97.229 69.805,99.759 66.484,100.911 L65.345,101.306 L65.276,117.928 L85.322,102.074 L81.182,77.039 C84.383,73.911 83.347,71.27 83.544,62.09 L83.544,60.109 L81.633,60.529 C81.279,60.607 80.923,60.674 80.568,60.74 C80.465,58.097 80.156,55.59 79.643,53.257 C87.122,48.104 91.934,41.207 93.611,33.143 L93.611,33.143 Z" id="Fill-79" fill="#FFFFFE"></path>
      <path d="M37.219,60.408 L47.702,62.09 L38.314,57.913 L45.578,58.098 L37.966,55.519 C39.072,54.59 40.611,50.031 39.693,47.951 C39.693,47.951 38.314,55.637 30.069,56.936 C30.069,59.389 30.069,61.051 30.069,61.051 L51.154,66.325 L37.219,60.408" id="Fill-80" fill="#FFFFFE"></path>
      <path d="M75.236,56.936 C66.99,55.637 65.612,47.951 65.612,47.951 C64.693,50.031 66.232,54.59 67.338,55.519 L59.727,58.098 L66.99,57.913 L57.602,62.09 L68.085,60.408 L54.151,66.325 L75.236,61.051 C75.236,61.051 75.236,59.389 75.236,56.936" id="Fill-81" fill="#FFFFFE"></path>
      <path d="M34.006,44.721 C34.006,44.721 31.317,47.951 28.961,47.951 C30.555,47 31.616,44.455 31.616,44.455 C29.746,46.047 28.396,46.725 26.876,47 L28.529,44.389 L25.808,45.717 C22.843,44.487 19.277,40.543 15.286,34.233 C15.286,34.233 18.606,44.085 28.961,50.612 C33.198,49.633 34.006,44.721 34.006,44.721" id="Fill-82" fill="#FFFFFE"></path>
      <path d="M75.504,53.612 C85.86,47.085 89.179,37.233 89.179,37.233 C85.188,43.543 81.622,47.487 78.657,48.717 L75.936,47.389 L77.589,50 C76.069,49.725 74.719,49.047 72.849,47.455 C72.849,47.455 73.91,50 75.504,50.951 C73.149,50.951 70.459,47.721 70.459,47.721 C70.459,47.721 71.267,52.633 75.504,53.612" id="Fill-83" fill="#FFFFFE"></path>
    </g>
  </g>
</svg>