<?xml version="1.0" standalone="no"?>
<!DOCTYPE svg PUBLIC "-//W3C//DTD SVG 20010904//EN"
 "http://www.w3.org/TR/2001/REC-SVG-20010904/DTD/svg10.dtd">
<svg version="1.0" xmlns="http://www.w3.org/2000/svg"
 width="1200.000000pt" height="1200.000000pt" viewBox="0 0 1200.000000 1200.000000"
 preserveAspectRatio="xMidYMid meet">
<metadata>
Created by potrace 1.11, written by Peter Selinger 2001-2013
</metadata>
<g transform="translate(0.000000,1200.000000) scale(0.100000,-0.100000)"
fill="#000000" stroke="none">
<path d="M8900 10829 c0 -195 -42 -512 -92 -699 -178 -669 -617 -1206 -1237
-1515 -59 -29 -123 -58 -144 -65 -21 -6 -44 -22 -51 -33 -50 -80 -13 -251 90
-409 24 -38 46 -68 48 -68 3 0 -1 17 -8 38 -35 100 -33 101 42 30 106 -100
199 -158 281 -177 l42 -9 -63 67 c-55 58 -137 186 -126 196 2 2 24 -12 48 -31
69 -55 169 -110 239 -133 35 -12 66 -19 68 -17 3 2 -23 47 -56 100 -33 53 -58
96 -55 96 3 0 52 -22 109 -49 l104 -49 67 40 c172 100 372 307 576 595 141
200 167 245 214 379 87 247 124 469 124 749 0 269 -34 497 -111 749 -29 94
-96 276 -105 285 -2 2 -4 -29 -4 -70z"/>
<path d="M3131 10889 c0 -3 -23 -64 -50 -135 -55 -147 -114 -370 -137 -524
-25 -167 -30 -469 -10 -630 38 -309 126 -578 276 -840 190 -331 505 -650 862
-873 86 -54 97 -58 141 -54 158 14 371 224 448 441 46 133 33 246 -33 269 -18
7 -78 34 -133 60 -481 233 -871 618 -1095 1082 -163 337 -220 581 -259 1100
-4 61 -9 107 -10 104z m233 -2059 c100 -129 286 -322 366 -381 33 -24 85 -58
117 -76 l56 -32 100 50 c54 28 101 48 104 46 2 -3 -19 -42 -47 -87 -72 -114
-71 -111 -12 -96 63 17 171 74 246 131 33 24 62 42 64 40 10 -9 -84 -151 -133
-202 -48 -50 -50 -53 -26 -53 62 0 251 123 326 212 14 17 28 29 30 26 2 -2 -9
-41 -24 -86 -52 -150 -152 -272 -271 -331 -96 -49 -97 -49 -201 25 -337 239
-607 530 -819 884 -63 104 -160 300 -160 322 0 6 46 -56 101 -138 56 -82 138
-196 183 -254z"/>
<path d="M5675 9043 c-250 -30 -473 -92 -657 -183 -101 -50 -198 -107 -198
-117 0 -3 15 -23 34 -45 19 -21 45 -67 58 -101 20 -53 23 -80 23 -187 0 -106
-4 -136 -24 -195 -109 -320 -359 -571 -628 -631 -41 -9 -92 -14 -114 -11 -30
4 -39 1 -43 -11 -10 -34 -36 -261 -43 -369 l-6 -111 44 -12 c305 -80 1179
-355 1199 -377 14 -16 -469 24 -940 78 -218 24 -396 54 -587 96 l-23 5 0 -343
c0 -340 0 -345 24 -394 56 -121 194 -200 706 -408 102 -41 313 -127 470 -190
157 -64 344 -140 415 -169 l130 -54 7 -115 c4 -62 14 -314 23 -559 11 -314 20
-448 28 -456 7 -7 84 -64 172 -128 l160 -117 7 43 c3 24 27 300 53 613 25 314
49 581 52 595 8 30 7 42 67 -685 26 -302 48 -553 49 -557 1 -4 77 48 168 116
l166 123 7 129 c3 71 13 323 22 559 8 237 19 433 22 436 4 3 117 51 252 107
772 318 1252 518 1302 543 106 54 168 141 189 268 11 70 8 641 -4 641 -5 0
-57 -11 -116 -24 -186 -42 -506 -82 -1046 -130 -327 -30 -385 -33 -385 -25 0
14 755 254 1096 350 l151 42 -4 71 c-5 99 -33 359 -41 391 -7 24 -12 26 -77
30 -134 8 -259 62 -385 168 -154 129 -284 332 -331 517 -30 119 -24 260 15
345 15 33 41 77 57 98 17 21 29 40 28 41 -17 15 -128 80 -186 110 -194 97
-423 160 -693 191 -74 8 -142 15 -151 15 -14 0 -18 -27 -28 -187 -6 -104 -16
-244 -21 -313 -5 -69 -14 -201 -20 -295 -6 -93 -20 -294 -30 -445 -11 -151
-23 -329 -27 -395 -9 -153 -17 -117 -32 145 -7 107 -18 283 -26 390 -8 107
-19 269 -25 360 -17 283 -39 612 -46 678 l-6 62 -67 -1 c-36 -1 -120 -8 -186
-16z m-640 -962 c16 -136 -62 -415 -138 -498 -16 -18 -17 -24 -6 -28 8 -3 140
-48 294 -100 153 -53 281 -98 283 -100 4 -4 -249 1 -447 10 -57 2 -100 0 -95
-4 5 -4 165 -77 356 -161 191 -85 346 -156 344 -158 -2 -2 -176 24 -386 58
-210 34 -384 59 -386 57 -3 -2 10 -10 28 -18 30 -12 356 -150 825 -349 95 -40
171 -75 169 -77 -2 -2 -368 88 -815 199 l-811 203 0 165 0 165 78 18 c94 21
212 71 296 126 166 109 316 315 376 518 7 23 16 40 21 38 4 -3 10 -31 14 -64z
m2065 41 c1 -31 68 -182 114 -257 64 -102 164 -206 261 -270 96 -64 176 -99
295 -130 l85 -21 0 -165 0 -164 -805 -202 c-443 -111 -811 -201 -818 -200 -7
1 92 46 220 100 575 244 798 340 795 343 -2 3 -174 -23 -382 -56 -207 -34
-379 -59 -381 -57 -3 2 150 73 338 157 189 83 347 156 352 161 5 4 -38 6 -95
4 -323 -14 -444 -14 -419 -1 14 7 144 53 290 101 146 49 266 89 268 90 1 1
-13 28 -33 60 -42 71 -70 143 -96 250 -26 110 -25 296 2 279 5 -3 9 -13 9 -22z
m-2855 -1577 c88 -13 288 -45 445 -69 157 -25 389 -61 515 -81 127 -20 313
-49 415 -65 102 -16 235 -36 295 -46 l110 -17 225 36 c216 35 325 52 835 132
656 103 863 135 893 140 l33 6 -3 -157 -3 -157 -55 -23 c-30 -13 -188 -76
-350 -140 -392 -154 -629 -248 -1149 -454 l-433 -171 -102 40 c-535 211 -1313
519 -1621 641 l-270 107 -3 144 c-1 79 0 149 2 156 3 8 16 11 33 8 15 -3 100
-16 188 -30z"/>
<path d="M3015 8239 c-138 -17 -404 -38 -697 -55 l-118 -6 0 -97 c0 -53 -5
-445 -11 -871 -19 -1386 17 -2148 132 -2800 126 -720 352 -1261 698 -1672 190
-227 540 -579 841 -848 533 -477 1151 -917 1931 -1374 118 -69 222 -126 230
-126 16 0 78 35 359 203 871 520 1523 1012 2135 1608 229 224 496 513 597 647
418 555 646 1355 717 2522 32 513 38 1669 14 2566 l-6 242 -121 7 c-266 15
-531 35 -718 57 l-197 22 -118 -123 c-64 -68 -129 -143 -144 -166 -21 -33 -43
-51 -91 -74 -35 -17 -78 -44 -97 -59 l-33 -28 128 -17 c149 -19 495 -44 735
-53 l167 -6 7 -947 c7 -969 1 -1298 -31 -1701 -62 -801 -212 -1373 -475 -1816
-38 -63 -99 -156 -138 -207 -181 -241 -609 -668 -976 -975 -138 -115 -185
-162 -185 -186 0 -5 9 -1 19 9 19 17 19 16 0 -21 -49 -95 22 -209 131 -209
109 0 180 114 131 209 l-20 39 26 -24 26 -24 -18 35 -18 35 23 -20 c57 -50 76
-163 41 -241 -39 -87 -141 -135 -239 -113 -132 28 -202 181 -138 302 l25 45
-178 -133 c-324 -243 -729 -507 -1143 -744 l-197 -113 -188 108 c-467 268
-834 508 -1183 772 -69 52 -132 100 -140 106 -8 6 -3 -5 10 -24 35 -49 40
-150 11 -207 -55 -109 -181 -148 -293 -92 -94 47 -135 176 -88 275 21 42 60
86 60 66 0 -6 -4 -14 -10 -17 -5 -3 -10 -11 -10 -17 0 -6 10 -3 22 8 l22 19
-17 -27 c-11 -17 -17 -48 -17 -82 0 -45 5 -60 27 -87 50 -59 116 -73 183 -39
69 35 99 124 64 193 -11 21 -12 28 -3 20 25 -25 29 -13 7 22 -13 19 -84 85
-158 146 -292 242 -719 658 -909 884 -344 411 -550 953 -651 1706 -63 478 -80
998 -72 2220 l5 847 176 6 c239 9 568 33 725 53 l129 17 -34 29 c-19 16 -56
39 -84 51 -28 13 -65 41 -85 64 -19 23 -89 101 -155 172 -139 151 -103 140
-350 109z m-711 -1476 l-18 -28 22 19 c26 22 27 18 7 -20 -47 -91 28 -204 135
-204 105 0 183 116 135 200 -19 33 -19 46 0 30 18 -15 20 1 3 18 -7 7 -8 12
-2 12 14 0 48 -49 62 -89 60 -173 -118 -337 -284 -262 -49 22 -109 90 -118
133 -16 80 -4 138 41 196 30 40 42 36 17 -5z m7152 15 c-9 -12 -16 -27 -16
-33 0 -5 5 -2 11 8 5 9 15 17 20 17 6 0 3 -10 -5 -22 -22 -32 -21 -116 3 -152
29 -43 70 -66 121 -66 112 0 184 115 134 213 l-17 32 23 -20 23 -20 -18 35
-18 35 23 -20 c62 -56 80 -174 37 -254 -67 -127 -244 -148 -341 -41 -74 82
-74 204 1 283 32 33 40 35 19 5z m-6952 -2630 c-17 -33 -17 -33 4 -15 l20 18
-16 -43 c-53 -149 128 -266 237 -154 48 49 55 106 25 181 -7 18 -6 19 11 5 17
-14 18 -14 6 9 -11 19 -11 23 0 19 8 -3 27 -29 42 -59 113 -215 -164 -414
-337 -242 -80 80 -81 205 -3 291 28 30 30 28 11 -10z m6752 10 c-9 -12 -16
-27 -16 -33 0 -5 5 -2 11 8 17 28 29 19 13 -10 -48 -93 26 -213 131 -213 106
0 179 120 130 214 -16 30 -16 30 5 11 24 -22 26 -9 4 25 -8 14 0 8 19 -12 35
-39 57 -94 57 -144 0 -35 -40 -123 -66 -146 -33 -29 -107 -58 -150 -58 -176
-1 -277 215 -163 345 35 39 48 46 25 13z"/>
<path d="M3690 7584 c-110 -17 -402 -43 -603 -53 -87 -5 -160 -11 -163 -13 -2
-3 -9 -315 -14 -694 -18 -1421 27 -2096 179 -2694 118 -463 285 -792 555
-1095 504 -563 1143 -1090 1866 -1537 195 -120 375 -228 382 -228 3 0 8 48 11
107 9 139 32 514 57 918 11 176 27 437 35 580 25 432 28 424 65 -210 6 -104
19 -327 30 -495 10 -168 27 -433 36 -590 9 -157 20 -291 23 -298 5 -8 62 21
186 96 770 463 1308 879 1846 1430 308 315 421 461 547 708 255 502 368 1108
402 2149 12 334 3 1825 -11 1846 -5 8 -59 15 -166 20 -193 10 -485 35 -612 54
-52 8 -96 13 -98 11 -2 -2 3 -49 12 -105 8 -57 18 -156 22 -222 3 -66 9 -121
12 -123 5 -3 95 14 199 38 l32 8 0 -480 c0 -394 -3 -495 -16 -563 -18 -96 -64
-194 -123 -261 -23 -25 -41 -54 -41 -65 0 -10 32 -209 70 -443 189 -1142 250
-1513 250 -1531 0 -13 -53 -61 -162 -148 -90 -71 -449 -355 -798 -631 l-635
-501 -3 163 c-2 90 0 389 3 665 l7 501 87 31 c231 83 372 240 439 490 22 84
25 117 26 266 1 189 -19 316 -74 485 -37 114 -98 240 -116 240 -8 0 -162 -61
-344 -136 -322 -133 -330 -137 -330 -165 0 -48 -41 -1053 -43 -1055 -109 -81
-504 -373 -584 -432 l-111 -82 -354 256 c-194 141 -354 257 -355 258 -1 1 -11
244 -23 541 -11 296 -23 541 -25 544 -8 7 -577 243 -601 248 -17 4 -25 -6 -49
-59 -103 -230 -156 -519 -135 -742 22 -228 79 -366 205 -491 84 -85 153 -128
280 -175 l70 -26 3 -663 2 -663 -37 30 c-114 89 -1503 1187 -1531 1210 l-33
27 25 155 c14 85 86 523 161 973 l135 818 -54 50 c-102 93 -160 208 -186 369
-8 51 -11 218 -11 529 1 250 3 456 5 458 3 3 92 -15 212 -42 20 -5 22 0 28 98
4 56 14 152 22 212 16 126 17 145 7 144 -5 -1 -46 -7 -93 -15z"/>
<path d="M7890 5605 c-96 -41 -179 -76 -185 -78 -5 -2 11 -48 37 -103 56 -122
91 -229 123 -387 34 -163 44 -417 22 -562 -50 -326 -209 -574 -460 -720 l-86
-50 -1 -282 c0 -156 2 -283 4 -283 3 0 925 725 1024 805 2 2 -48 315 -112 697
-63 381 -127 771 -143 865 -15 95 -32 173 -38 172 -5 0 -89 -34 -185 -74z"/>
<path d="M3942 5208 c-40 -244 -104 -627 -141 -851 l-68 -408 181 -144 c722
-571 842 -665 849 -665 4 0 7 126 7 280 l0 281 -31 17 c-205 112 -327 236
-420 427 -92 189 -132 427 -111 663 21 237 80 468 158 624 l34 68 -32 13
c-209 87 -336 137 -344 137 -5 0 -42 -199 -82 -442z"/>
</g>
</svg>
